<svg width="1440" height="705" viewBox="0 0 1440 705" fill="none" xmlns="http://www.w3.org/2000/svg">
<g clip-path="url(#clip0_212_16580)" filter="url(#filter0_f_212_16580)">
<path opacity="0.15" d="M1374.19 307.88C1407.7 344.97 1434.88 409.451 1384.8 454.973C1379.63 459.666 1331.18 502.248 1258.3 496.96C1169.54 490.52 1151.34 420.812 1053.38 402.716C947.298 383.119 885.037 449.425 833.231 429.056C771.971 404.97 764.451 275.071 875.331 219.396C1008.91 152.326 1284.08 208.151 1374.19 307.88Z" fill="#EBC136"/>
<path opacity="0.15" d="M539.245 499.639C570.307 480.569 604.155 442.148 583.134 403.285C580.966 399.278 560.262 362.654 511.679 353.834C452.505 343.09 423.162 386.52 355.092 381.996C281.375 377.096 257.688 322.301 218.971 327.114C173.189 332.806 135.627 418.21 193.513 474.149C263.248 541.538 455.723 550.917 539.245 499.639Z" fill="#EBC136"/>
<path opacity="0.15" d="M721.575 391.89C706.187 370.799 690.464 330.221 703.947 292.859C705.337 289.007 718.519 253.857 744.877 248.297C776.983 241.526 790.013 286.799 826.481 286.823C865.973 286.849 881.817 233.774 902.122 241.155C926.131 249.883 941.044 337.57 906.944 389.508C865.865 452.075 762.953 448.602 721.575 391.89Z" fill="#EBC136"/>
<path opacity="0.15" d="M709.467 344.802C726.285 334.124 744.622 312.633 733.277 290.936C732.107 288.699 720.931 268.254 694.654 263.363C662.649 257.407 646.745 281.693 609.923 279.218C570.047 276.538 557.27 245.943 536.322 248.661C511.55 251.876 491.171 299.62 522.448 330.828C560.128 368.423 664.247 373.514 709.467 344.802Z" fill="#EBC136"/>
<path opacity="0.15" d="M1433.62 318.365C1451.76 302.046 1471.7 269.494 1459.95 237.192C1458.74 233.861 1447.14 203.43 1419.17 196.595C1385.09 188.269 1367.7 224.965 1328.42 221.946C1285.89 218.678 1272.75 173.066 1250.34 177.534C1223.83 182.818 1201.28 254.751 1234.15 300.934C1273.76 356.569 1384.86 362.244 1433.62 318.365Z" fill="#8047F8"/>
<path opacity="0.15" d="M1445.61 447.852C1459.71 458.804 1475.15 480.725 1465.84 502.622C1464.88 504.88 1455.7 525.511 1433.82 530.261C1407.16 536.047 1393.73 511.312 1363.03 513.533C1329.79 515.938 1319.35 546.841 1301.86 543.922C1281.17 540.471 1263.84 491.932 1289.71 460.552C1320.88 422.749 1407.69 418.404 1445.61 447.852Z" fill="#8047F8"/>
<path opacity="0.15" d="M246.937 206.891C259.507 228.616 271.932 270.056 259.695 307.491C258.433 311.351 246.5 346.558 224.055 351.502C196.717 357.524 186.675 311.405 155.792 310.442C122.347 309.4 107.765 362.665 90.7319 354.678C70.5904 345.234 59.883 256.175 89.8998 204.53C126.06 142.315 213.139 148.476 246.937 206.891Z" fill="#EBC136"/>
<path opacity="0.15" d="M888.507 502.947C862.621 483.727 837.462 445.18 863.926 406.528C866.654 402.543 892.434 366.123 939.6 357.62C997.048 347.262 1017.11 390.78 1081.84 386.683C1151.94 382.246 1183.66 327.712 1219.2 332.753C1261.23 338.713 1281.76 424.166 1217.71 479.631C1140.55 546.449 958.112 554.627 888.507 502.947Z" fill="#EBC136"/>
<path opacity="0.15" d="M814.922 469.538C836.564 450.513 859.249 413.904 841.967 380.187C840.185 376.71 823.248 344.989 787.43 339.962C743.805 333.84 724.654 374.687 674.868 374.695C620.953 374.704 600.92 326.808 572.979 333.46C539.939 341.327 516.942 420.444 561.931 467.321C616.129 523.792 756.728 520.695 814.922 469.538Z" fill="#8047F8"/>
<path opacity="0.15" d="M862.472 211.004C903.019 221.666 946.079 241.465 915.336 258.257C912.167 259.989 881.993 275.762 816.11 277.009C735.863 278.528 699.181 256.67 607.369 254.784C507.942 252.742 472.601 276.767 420.852 272.269C359.659 266.95 314.602 225.145 396 202.591C494.058 175.42 753.443 182.335 862.472 211.004Z" fill="#8047F8"/>
<path opacity="0.15" d="M195.139 452.866C214.225 430.714 234.35 388.381 219.454 349.978C217.918 346.018 203.31 309.899 171.98 304.685C133.82 298.335 116.761 345.475 73.1632 346.25C25.9491 347.089 8.74424 292.467 -15.7709 300.526C-44.7595 310.056 -65.4579 401.145 -26.3915 454.214C20.6708 518.144 143.816 512.431 195.139 452.866Z" fill="#8047F8"/>
</g>
<defs>
<filter id="filter0_f_212_16580" x="-160" y="-90" width="1760" height="864" filterUnits="userSpaceOnUse" color-interpolation-filters="sRGB">
<feFlood flood-opacity="0" result="BackgroundImageFix"/>
<feBlend mode="normal" in="SourceGraphic" in2="BackgroundImageFix" result="shape"/>
<feGaussianBlur stdDeviation="80" result="effect1_foregroundBlur_212_16580"/>
</filter>
<clipPath id="clip0_212_16580">
<rect width="1440" height="544" fill="white" transform="translate(0 70)"/>
</clipPath>
</defs>
</svg>
